HIERARCHY
ROOT Hips
{
	OFFSET -3.958830 18.904000 13.208200
	CHANNELS 6 Xposition Yposition Zposition Zrotation Yrotation Xrotation 
	JOINT LHipJoint
	{
		OFFSET 0.000000 0.000000 0.000000
		CHANNELS 3 Zrotation Yrotation Xrotation
		JOINT LeftUpLeg
		{
			OFFSET 1.800000 -1.400000 0.085000
			CHANNELS 3 Zrotation Yrotation Xrotation
			JOINT LeftLeg
			{
				OFFSET 2.215000 -6.000000 0.000000
				CHANNELS 3 Zrotation Yrotation Xrotation
				JOINT LeftFoot
				{
					OFFSET 2.500000 -6.900000 0.000000
					CHANNELS 3 Zrotation Yrotation Xrotation
					JOINT LeftToeBase
					{
						OFFSET 0.200000 -0.500000 1.950000
						CHANNELS 3 Zrotation Yrotation Xrotation
						End Site
						{
							OFFSET 0.000000 0.000000 0.000000
						}
					}
				}
			}
		}
	}
	JOINT RHipJoint
	{
		OFFSET 0.000000 0.000000 0.000000
		CHANNELS 3 Zrotation Yrotation Xrotation
		JOINT RightUpLeg
		{
			OFFSET -1.800000 -1.400000 0.085000
			CHANNELS 3 Zrotation Yrotation Xrotation
			JOINT RightLeg
			{
				OFFSET -2.215000 -6.000000 0.000000
				CHANNELS 3 Zrotation Yrotation Xrotation
				JOINT RightFoot
				{
					OFFSET -2.500000 -6.900000 0.000000
					CHANNELS 3 Zrotation Yrotation Xrotation
					JOINT RightToeBase
					{
						OFFSET -0.200000 -0.500000 1.950000
						CHANNELS 3 Zrotation Yrotation Xrotation
						End Site
						{
							OFFSET 0.000000 0.000000 0.000000
						}
					}
				}
			}
		}
	}
	JOINT LowerBack
	{
		OFFSET 0.000000 0.000000 0.000000
		CHANNELS 3 Zrotation Yrotation Xrotation
		JOINT Spine
		{
			OFFSET -0.087000 1.940000 -0.288900
			CHANNELS 3 Zrotation Yrotation Xrotation
			JOINT Spine1
			{
				OFFSET 0.000000 1.950000 0.060000
				CHANNELS 3 Zrotation Yrotation Xrotation
				JOINT Neck
				{
					OFFSET 0.000000 0.000000 0.000000
					CHANNELS 3 Zrotation Yrotation Xrotation
					JOINT Neck1
					{
						OFFSET 0.000000 1.600000 0.340000
						CHANNELS 3 Zrotation Yrotation Xrotation
						JOINT Head
						{
							OFFSET 0.000000 1.667000 -0.240000
							CHANNELS 3 Zrotation Yrotation Xrotation
							End Site
							{
								OFFSET 0.000000 0.000000 0.000000
							}
						}
					}
				}
				JOINT LeftShoulder
				{
					OFFSET 0.000000 0.000000 0.000000
					CHANNELS 3 Zrotation Yrotation Xrotation
					JOINT LeftArm
					{
						OFFSET 2.700000 1.550000 -0.730000
						CHANNELS 3 Zrotation Yrotation Xrotation
						JOINT LeftForeArm
						{
							OFFSET 5.450000 0.000000 0.000000
							CHANNELS 3 Zrotation Yrotation Xrotation
							JOINT LeftHand
							{
								OFFSET 3.450000 0.000000 0.000000
								CHANNELS 3 Zrotation Yrotation Xrotation
								JOINT LeftHandIndex1
								{
									OFFSET 0.750000 0.000000 0.000000
									CHANNELS 3 Zrotation Yrotation Xrotation
									End Site
									{
										OFFSET 0.000000 0.000000 0.000000
									}
								}
							}
						}
					}
				}
				JOINT RightShoulder
				{
					OFFSET 0.000000 0.000000 0.000000
					CHANNELS 3 Zrotation Yrotation Xrotation
					JOINT RightArm
					{
						OFFSET -2.700000 1.550000 -0.730000
						CHANNELS 3 Zrotation Yrotation Xrotation
						JOINT RightForeArm
						{
							OFFSET -5.450000 0.000000 0.000000
							CHANNELS 3 Zrotation Yrotation Xrotation
							JOINT RightHand
							{
								OFFSET -3.450000 0.000000 0.000000
								CHANNELS 3 Zrotation Yrotation Xrotation
								JOINT RightHandIndex1
								{
									OFFSET -0.750000 0.000000 0.000000
									CHANNELS 3 Zrotation Yrotation Xrotation
									End Site
									{
										OFFSET 0.000000 0.000000 0.000000
									}
								}
							}
						}
					}
				}
			}
		}
	}
}
MOTION
Frames: 12
Frame Time: 0.016667
0.927620 16.979500 -1.560230 -9.125944 -39.754292 0.975586 -15.436949 13.686387 3.643223 3.582940 2.384982 8.600036 -10.096519 5.883804 -0.729784 0.420099 5.019474 2.939354 0.097300 0.138360 0.051680 17.995488 -9.684302 3.317153 -8.125179 1.420287 -29.058859 7.219713 -2.143437 1.631237 0.281399 -1.771596 3.747042 0.124940 0.047450 -0.170100 -2.444843 -3.687742 -8.419013 3.346937 -3.887006 15.200644 2.480208 -3.925147 2.636228 2.063067 -1.358622 -14.197872 -6.156169 -0.867961 37.441467 0.363970 -2.267200 -0.913930 -8.409929 -11.848556 4.873838 0.764534 -8.224866 -0.419741 10.797777 3.957303 0.050972 -3.974041 2.724068 0.112100 -0.006230 -0.081770 0.040860 5.103048 12.984401 11.132972 -1.013335 -8.811359 -0.263030 -6.794018 10.665572 -0.252146 2.712874 -1.243143 -0.172590 0.091040 -0.106760 -0.005540 
0.921260 16.969820 -1.558830 -9.120739 -39.610496 1.122754 -15.441082 13.659505 3.669448 3.765354 2.344548 8.724979 -10.452585 5.846995 -1.279716 0.442771 5.053843 2.939836 0.100160 0.148580 0.048490 17.995735 -9.687915 3.291051 -8.066737 1.422534 -29.030999 7.267766 -2.187664 1.996567 0.283965 -1.776059 3.752336 0.131820 0.060510 -0.174590 -2.446413 -3.660574 -8.412381 3.237574 -3.902610 14.893179 2.548478 -3.984603 2.620139 1.963674 -1.250818 -14.171769 -5.922769 -0.967552 37.224030 0.587210 -2.400750 -0.821670 -8.143401 -11.920666 4.841683 1.495183 -8.715340 -0.378648 9.804411 5.539329 0.064841 -4.007200 2.697524 0.100790 0.000000 -0.084450 0.052930 5.030438 12.908930 11.114120 -1.319605 -8.838820 -0.234448 -7.282429 10.357758 -0.294298 2.721806 -1.249625 -0.173760 0.101970 -0.116890 0.004960 
0.914880 16.960310 -1.553770 -8.892712 -39.539780 1.237953 -15.447003 13.637360 3.708684 3.722987 2.383672 8.856487 -10.838531 5.781503 -1.957828 0.481275 5.063822 2.936622 0.106560 0.180100 0.027070 17.993684 -9.693350 3.257080 -8.127000 1.385596 -29.083281 7.432806 -2.297763 2.638575 0.278954 -1.791149 3.755760 0.138650 0.068670 -0.164920 -2.438205 -3.650043 -8.407320 3.026823 -3.854143 14.447427 2.602877 -3.994978 2.419863 1.854936 -1.204651 -14.173065 -5.890033 -1.084827 37.070043 0.777430 -2.592150 -1.069420 -7.956650 -12.171043 4.689348 2.842814 -9.873806 -0.398529 7.689484 9.538970 0.038434 -4.090579 2.657937 0.079490 0.007640 -0.074720 0.069960 5.093975 12.999339 11.234686 -1.979289 -9.169216 -0.149901 -8.007029 9.164898 -0.332723 2.742873 -1.252816 -0.150230 0.103790 -0.123510 0.028940 
0.902200 16.949270 -1.545040 -8.639908 -39.552685 1.326800 -15.450033 13.604223 3.748016 3.682173 2.435665 9.106808 -11.252012 5.740885 -2.602582 0.504852 5.112955 2.933308 0.092230 0.172660 0.012820 17.993769 -9.712606 3.225205 -8.117132 1.379799 -29.110671 7.712781 -2.444406 3.432125 0.287695 -1.819406 3.754269 0.137530 0.090600 -0.167210 -2.435506 -3.595012 -8.399914 2.779741 -3.722031 13.973377 2.455011 -3.870036 1.978763 1.845316 -1.094229 -14.012073 -5.688528 -1.371595 36.816089 0.576450 -2.771430 -0.823920 -8.020451 -12.239452 4.381028 4.743770 -10.680496 -0.578429 6.242113 11.609448 -0.086781 -4.149732 2.613289 0.062810 0.024410 -0.084390 0.075710 5.204162 12.936891 11.249454 -3.055814 -10.102692 0.004010 -7.996929 8.970521 -0.330244 2.741385 -1.257687 -0.155400 0.118580 -0.119780 0.038700 
0.884870 16.940140 -1.534490 -8.704383 -39.247393 1.596032 -15.447535 13.569955 3.795899 4.034026 2.362400 9.373688 -11.873962 5.718691 -3.315253 0.530965 5.197520 2.911057 0.075150 0.146460 0.008580 17.994851 -9.703935 3.218495 -7.965406 1.362726 -28.576512 7.796898 -2.400609 2.936563 0.285963 -1.837121 3.751374 0.122510 0.095090 -0.165780 -2.450403 -3.577053 -8.444180 2.923181 -3.835520 13.658932 2.053004 -3.860077 1.289340 1.950978 -0.945624 -14.095406 -5.527782 -1.510524 37.103660 0.367290 -2.815210 -0.335550 -8.070197 -12.447069 4.277976 6.636762 -10.794938 -0.707130 4.615934 12.373950 -0.291350 -4.172420 2.580869 0.062850 0.028700 -0.090810 0.068530 5.044707 12.983016 11.387449 -3.595827 -11.127398 0.121285 -7.537681 9.017587 -0.288419 2.741541 -1.255075 -0.160530 0.114710 -0.110590 0.035150 
0.866970 16.931240 -1.529900 -8.476490 -38.520639 1.654417 -15.445741 13.504915 3.814757 4.345678 2.267049 9.536396 -12.458678 5.703640 -3.825499 0.517386 5.291307 2.887821 0.066460 0.114650 0.017930 18.002139 -9.693536 3.213144 -7.994461 1.226447 -27.895188 7.389303 -2.214149 1.605738 0.283324 -1.861353 3.747460 0.118480 0.105990 -0.169300 -2.490168 -3.508007 -8.462027 2.758421 -4.155535 13.101340 1.461779 -4.126677 1.107261 1.942506 -0.599114 -14.040978 -4.929109 -1.715621 37.338115 0.240810 -2.877530 -0.038750 -7.988629 -12.563177 4.177229 8.166134 -10.796696 -0.885292 4.205348 12.657781 -0.412623 -4.198828 2.547374 0.078580 0.036780 -0.108440 0.058150 4.895290 12.697422 11.359676 -3.321364 -10.731919 0.087777 -7.773991 8.000803 -0.307176 2.748789 -1.244824 -0.186010 0.122610 -0.097170 0.015970 
0.850030 16.931040 -1.530110 -8.282516 -38.185041 1.586422 -15.453368 13.467236 3.811991 4.361047 2.249865 9.713867 -12.317078 5.634924 -4.137108 0.536462 5.290793 2.890343 0.064600 0.114530 0.018630 18.001006 -9.675995 3.226994 -7.896999 1.165123 -27.287608 7.067381 -2.026133 0.326414 0.274213 -1.884363 3.743182 0.115010 0.105540 -0.165710 -2.486399 -3.472555 -8.476590 2.329071 -4.246420 12.705870 1.408293 -4.286134 1.019526 1.908777 -0.531733 -14.037862 -4.866574 -1.864567 37.630628 0.045530 -2.987430 0.326720 -7.756808 -12.520647 4.177130 8.702648 -10.713304 -0.940556 4.165475 12.498785 -0.424693 -4.200901 2.551081 0.065450 0.039530 -0.108850 0.057840 4.725774 12.600180 11.322007 -3.564834 -10.445512 0.141253 -7.549963 7.572324 -0.308235 2.766578 -1.245945 -0.177350 0.115500 -0.100390 0.021810 
0.838710 16.929970 -1.525060 -8.505328 -37.966296 1.842308 -15.451032 13.450972 3.828657 4.673614 2.152879 9.829796 -12.426342 5.588893 -4.502135 0.539221 5.317642 2.880657 0.069790 0.119900 0.016490 18.007645 -9.654553 3.230390 -7.508090 1.227942 -26.962005 6.693749 -1.906649 -0.317781 0.267114 -1.866089 3.758734 0.116950 0.099140 -0.168320 -2.514119 -3.487196 -8.496524 2.658747 -4.530669 12.378267 1.271287 -4.495589 0.841293 1.906051 -0.806528 -14.070795 -5.423595 -1.817036 37.722408 -0.043520 -3.118010 0.065440 -7.618172 -12.375528 4.287460 8.907104 -10.099086 -0.859966 4.018281 11.773909 -0.443210 -4.171011 2.547792 0.078660 0.031770 -0.102520 0.062420 4.588106 12.659940 11.222385 -4.410797 -10.298230 0.206325 -6.909694 7.816726 -0.273278 2.758483 -1.236318 -0.179360 0.118360 -0.102850 0.020570 
0.836300 16.931880 -1.531000 -8.533549 -38.062268 1.920325 -15.449186 13.459597 3.826354 4.662261 2.151638 9.785720 -12.345527 5.581038 -4.444606 0.551429 5.283533 2.881488 0.086280 0.143870 0.017860 18.008823 -9.644813 3.243381 -7.384999 1.269945 -26.932029 6.714123 -1.876147 -0.497763 0.255088 -1.857712 3.759098 0.120080 0.077940 -0.161620 -2.518919 -3.509538 -8.505530 2.705302 -4.632200 12.260542 1.313526 -4.591713 0.732737 1.914485 -1.128486 -14.210595 -6.041603 -1.583311 37.761038 -0.004160 -3.059580 -0.173090 -7.435992 -12.294706 4.508636 8.719684 -9.323028 -0.775039 4.398022 10.562760 -0.378602 -4.123384 2.579351 0.081640 0.016830 -0.084560 0.070620 4.417609 12.883957 11.188931 -5.262005 -10.074555 0.261267 -6.504069 8.020723 -0.243818 2.764529 -1.240780 -0.160370 0.100530 -0.116970 0.027140 
0.832830 16.937510 -1.539490 -8.475482 -38.323407 1.893396 -15.452166 13.474061 3.836692 4.632824 2.164851 9.728550 -12.447155 5.587500 -4.434262 0.571040 5.276621 2.882248 0.084750 0.147400 0.009310 18.004533 -9.656024 3.233302 -7.152825 1.329005 -27.190721 6.391170 -1.877405 -0.165743 0.262121 -1.817433 3.778604 0.112560 0.077170 -0.150040 -2.493942 -3.515717 -8.508030 2.458922 -4.562948 12.274691 1.492793 -4.580088 0.501045 1.966161 -1.286517 -14.299123 -6.316656 -1.458254 37.720095 -0.273710 -2.889230 0.012080 -7.555350 -12.269068 4.666090 8.757811 -8.528241 -0.730549 4.904244 9.038978 -0.309773 -4.095118 2.604007 0.071550 0.021340 -0.078740 0.076970 4.472495 13.072437 11.160615 -6.112521 -10.036054 0.320561 -6.267671 7.872728 -0.230128 2.771083 -1.243605 -0.145020 0.088660 -0.119830 0.036030 
0.828900 16.940310 -1.550350 -8.418171 -38.057851 1.912202 -15.443534 13.506835 3.800444 4.723536 2.098138 9.303756 -12.401043 5.689946 -3.730217 0.570775 5.248472 2.899641 0.067630 0.136590 -0.016980 18.006822 -9.673850 3.234633 -7.142549 1.313344 -27.316618 6.366089 -1.900271 0.038686 0.273232 -1.816357 3.790481 0.103410 0.099780 -0.149250 -2.502223 -3.534729 -8.480060 2.319188 -4.733950 12.281184 1.487749 -4.764351 0.493127 1.890225 -1.421967 -14.357850 -6.444780 -1.397713 37.092269 -0.087880 -2.976580 0.288070 -7.385566 -12.170220 4.833334 8.565488 -7.767125 -0.620801 5.253221 7.302171 -0.247723 -4.070807 2.620555 0.054310 0.034290 -0.090120 0.085030 4.442572 13.041227 11.123543 -6.447664 -10.320807 0.341061 -6.506255 8.083442 -0.229766 2.767095 -1.249903 -0.143430 0.094110 -0.112640 0.050060 
0.827540 16.948570 -1.554850 -8.279992 -37.868908 1.657400 -15.432186 13.557030 3.809338 4.708659 2.102024 9.253021 -12.258292 5.739249 -3.385810 0.554484 5.234458 2.898237 0.059060 0.117200 -0.010470 18.000444 -9.704595 3.240641 -7.253811 1.242457 -27.167032 6.262581 -1.917895 0.117334 0.269794 -1.801964 3.791164 0.090270 0.086570 -0.157510 -2.475979 -3.572585 -8.523826 2.112244 -4.804653 12.801912 1.449661 -4.758833 -0.546602 2.010570 -1.531237 -14.380183 -6.821978 -1.354166 37.820725 -0.011750 -3.145900 0.145350 -7.600510 -11.930002 4.796970 8.521334 -7.063082 -0.562927 5.988365 4.702421 -0.168716 -4.008484 2.626425 0.077680 0.017860 -0.085130 0.069570 4.480214 12.986861 11.035574 -6.766057 -11.161072 0.355576 -6.242739 9.583349 -0.141070 2.740378 -1.243849 -0.151180 0.097040 -0.102260 0.037850 
